<svg width="151" height="43" viewBox="0 0 151 43" fill="none" xmlns="http://www.w3.org/2000/svg">
<path d="M31.0178 16.8803V13.0882L32.2742 13.2361V10.394L17.1046 8.07202L0 11.3279V14.651L1.58562 14.4306V23.6649H6.18528V32.2837L28.0212 34.9296L31.8845 34.4619V23.4002L38.747 23.4217V33.6288L41.9358 33.2431V19.7546L43 19.807V17.786L31.0178 16.8803ZM29.4738 14.4011V17.7269L24.9037 17.8115V13.9361L29.4738 14.4011ZM3.96137 14.944L14.3338 13.6284V21.0325L3.96137 21.3765V14.944ZM8.22241 30.3218V23.6636H12.4982V30.7102L8.22241 30.3218ZM13.5853 30.7841V23.6609H17.1032V23.6474H18.5317V31.2329L13.5853 30.7841ZM19.5744 31.3713V23.6501L25.3351 23.6515V31.8981L19.5744 31.3713Z" fill="#7D7D7D"/>
<path d="M56.48 20V5.8H61.64C63.1867 5.8 64.48 6.12 65.52 6.76C66.56 7.38667 67.34 8.24 67.86 9.32C68.38 10.3867 68.64 11.5733 68.64 12.88C68.64 14.32 68.3533 15.5733 67.78 16.64C67.2067 17.7067 66.3933 18.5333 65.34 19.12C64.3 19.7067 63.0667 20 61.64 20H56.48ZM65.86 12.88C65.86 11.96 65.6933 11.1533 65.36 10.46C65.0267 9.75333 64.5467 9.20667 63.92 8.82C63.2933 8.42 62.5333 8.22 61.64 8.22H59.24V17.58H61.64C62.5467 17.58 63.3133 17.38 63.94 16.98C64.5667 16.5667 65.04 16.0067 65.36 15.3C65.6933 14.58 65.86 13.7733 65.86 12.88ZM84.9564 17.58V20H75.0964V5.8H84.7764V8.22H77.8564V11.64H83.8364V13.88H77.8564V17.58H84.9564ZM99.8681 9.52C99.7748 9.42667 99.6015 9.3 99.3481 9.14C99.1081 8.98 98.8081 8.82667 98.4481 8.68C98.1015 8.53333 97.7215 8.40667 97.3081 8.3C96.8948 8.18 96.4748 8.12 96.0481 8.12C95.3015 8.12 94.7348 8.26 94.3481 8.54C93.9748 8.82 93.7881 9.21333 93.7881 9.72C93.7881 10.1067 93.9081 10.4133 94.1481 10.64C94.3881 10.8667 94.7481 11.06 95.2281 11.22C95.7081 11.38 96.3081 11.5533 97.0281 11.74C97.9615 11.9667 98.7681 12.2467 99.4481 12.58C100.141 12.9 100.668 13.3267 101.028 13.86C101.401 14.38 101.588 15.0733 101.588 15.94C101.588 16.7 101.448 17.3533 101.168 17.9C100.888 18.4333 100.501 18.8667 100.008 19.2C99.5148 19.5333 98.9548 19.78 98.3281 19.94C97.7015 20.0867 97.0348 20.16 96.3281 20.16C95.6215 20.16 94.9148 20.0867 94.2081 19.94C93.5015 19.7933 92.8215 19.5867 92.1681 19.32C91.5148 19.04 90.9148 18.7067 90.3681 18.32L91.5881 15.94C91.7081 16.06 91.9215 16.22 92.2281 16.42C92.5348 16.6067 92.9081 16.8 93.3481 17C93.7881 17.1867 94.2681 17.3467 94.7881 17.48C95.3081 17.6133 95.8348 17.68 96.3681 17.68C97.1148 17.68 97.6815 17.5533 98.0681 17.3C98.4548 17.0467 98.6481 16.6867 98.6481 16.22C98.6481 15.7933 98.4948 15.46 98.1881 15.22C97.8815 14.98 97.4548 14.7733 96.9081 14.6C96.3615 14.4133 95.7148 14.2133 94.9681 14C94.0748 13.7467 93.3281 13.4667 92.7281 13.16C92.1281 12.84 91.6815 12.44 91.3881 11.96C91.0948 11.48 90.9481 10.88 90.9481 10.16C90.9481 9.18667 91.1748 8.37333 91.6281 7.72C92.0948 7.05333 92.7215 6.55333 93.5081 6.22C94.2948 5.87333 95.1681 5.7 96.1281 5.7C96.7948 5.7 97.4215 5.77333 98.0081 5.92C98.6081 6.06667 99.1681 6.26 99.6881 6.5C100.208 6.74 100.675 7 101.088 7.28L99.8681 9.52ZM107.974 20V5.8H110.734V20H107.974ZM123.896 20.1C122.976 20.1 122.103 19.9133 121.276 19.54C120.463 19.1667 119.743 18.6533 119.116 18C118.503 17.3333 118.023 16.56 117.676 15.68C117.33 14.8 117.156 13.8467 117.156 12.82C117.156 11.8467 117.33 10.9333 117.676 10.08C118.023 9.21333 118.51 8.45333 119.136 7.8C119.763 7.14667 120.496 6.63333 121.336 6.26C122.176 5.88667 123.09 5.7 124.076 5.7C125.41 5.7 126.55 5.98667 127.496 6.56C128.456 7.12 129.176 7.86667 129.656 8.8L127.596 10.32C127.236 9.61333 126.73 9.07333 126.076 8.7C125.436 8.32667 124.736 8.14 123.976 8.14C123.376 8.14 122.83 8.26667 122.336 8.52C121.843 8.77333 121.416 9.12 121.056 9.56C120.696 10 120.416 10.5067 120.216 11.08C120.03 11.6533 119.936 12.26 119.936 12.9C119.936 13.58 120.036 14.2067 120.236 14.78C120.45 15.3533 120.743 15.8533 121.116 16.28C121.503 16.7067 121.95 17.0467 122.456 17.3C122.963 17.54 123.523 17.66 124.136 17.66C124.856 17.66 125.543 17.4733 126.196 17.1C126.863 16.7267 127.483 16.18 128.056 15.46V18.18C126.87 19.46 125.483 20.1 123.896 20.1ZM127.856 14.72H124.996V12.7H130.136V20H127.856V14.72ZM139.549 10.88V20H136.789V5.8H138.989L146.329 15.16V5.82H149.089V20H146.789L139.549 10.88ZM64.394 29.06V39H62.476V34.758H57.968V39H56.036V29.06H57.968V33.078H62.476V29.06H64.394ZM72.1796 29.06H74.1396L77.7936 39H75.8056L74.8816 36.522H71.4096L70.4996 39H68.5116L72.1796 29.06ZM74.5316 35.164L73.1596 31.062L71.7316 35.164H74.5316ZM82.1093 29.06L84.7973 36.704L87.4573 29.06H89.4873L85.7213 39H83.8593L80.0793 29.06H82.1093ZM100.46 37.306V39H93.5582V29.06H100.334V30.754H95.4902V33.148H99.6762V34.716H95.4902V37.306H100.46ZM106.908 32.616V39H104.976V29.06H106.516L111.654 35.612V29.074H113.586V39H111.976L106.908 32.616Z" fill="#7D7D7D"/>
</svg>
