<svg width="128" height="43" viewBox="0 0 128 43" fill="none" xmlns="http://www.w3.org/2000/svg">
<g clip-path="url(#clip0_57_7)">
<path d="M37.625 5.37492V8.95825C37.625 15.8848 32.01 21.4999 25.0834 21.4999H23.2917V23.2916H32.25V35.8332C32.25 37.813 30.6465 39.4166 28.6667 39.4166H14.3334C12.3536 39.4166 10.75 37.813 10.75 35.8332V23.2916H19.7084V17.9166C19.7084 10.99 25.3235 5.37492 32.25 5.37492H37.625ZM9.85421 3.58325C14.3853 3.58325 18.3915 5.82463 20.8264 9.26104C18.9989 11.6637 17.9167 14.6647 17.9167 17.9166V19.7082H17.0209C9.59979 19.7082 3.58337 13.6918 3.58337 6.27075V3.58325H9.85421Z" fill="#7D7D7D"/>
</g>
<path d="M65.64 29.16C64.8267 29.16 64.18 28.94 63.7 28.5C63.2333 28.06 63 27.5 63 26.82V18.66C63 18.26 62.9533 17.8933 62.86 17.56C62.7667 17.2267 62.6 16.9667 62.36 16.78C62.12 16.58 61.7733 16.48 61.32 16.48C60.8933 16.48 60.5467 16.5733 60.28 16.76C60.0267 16.9467 59.84 17.2133 59.72 17.56C59.6 17.8933 59.54 18.28 59.54 18.72V19.08H61.28V21.12H59.54V29H56.86V21.12H55.48V19.08H56.86V18.2C56.86 17.3333 57.0333 16.6067 57.38 16.02C57.74 15.42 58.2467 14.9667 58.9 14.66C59.5533 14.3533 60.3333 14.2 61.24 14.2C62.76 14.2 63.88 14.56 64.6 15.28C65.32 16 65.68 16.9467 65.68 18.12V25.56C65.68 25.9867 65.7533 26.2933 65.9 26.48C66.0467 26.6667 66.2533 26.76 66.52 26.76C66.7733 26.76 67.0267 26.72 67.28 26.64C67.5333 26.56 67.7133 26.5 67.82 26.46L68.18 28.62C68.0733 28.6733 67.88 28.7467 67.6 28.84C67.32 28.92 67.0067 28.9933 66.66 29.06C66.3133 29.1267 65.9733 29.16 65.64 29.16ZM74.2045 29.2C73.3512 29.2 72.5845 29.06 71.9045 28.78C71.2245 28.4867 70.6445 28.0867 70.1645 27.58C69.6979 27.0733 69.3379 26.4933 69.0845 25.84C68.8312 25.1867 68.7045 24.5 68.7045 23.78C68.7045 23.0467 68.8312 22.3533 69.0845 21.7C69.3379 21.0467 69.6979 20.4667 70.1645 19.96C70.6445 19.4533 71.2245 19.06 71.9045 18.78C72.5845 18.4867 73.3512 18.34 74.2045 18.34C75.0579 18.34 75.8179 18.4867 76.4845 18.78C77.1645 19.06 77.7445 19.4533 78.2245 19.96C78.7045 20.4667 79.0645 21.0467 79.3045 21.7C79.5579 22.3533 79.6845 23.0467 79.6845 23.78C79.6845 24.5 79.5579 25.1867 79.3045 25.84C79.0645 26.4933 78.7045 27.0733 78.2245 27.58C77.7579 28.0867 77.1845 28.4867 76.5045 28.78C75.8245 29.06 75.0579 29.2 74.2045 29.2ZM71.4645 23.78C71.4645 24.3933 71.5845 24.94 71.8245 25.42C72.0645 25.8867 72.3912 26.2533 72.8045 26.52C73.2179 26.7867 73.6845 26.92 74.2045 26.92C74.7112 26.92 75.1712 26.7867 75.5845 26.52C75.9979 26.24 76.3245 25.8667 76.5645 25.4C76.8179 24.92 76.9445 24.3733 76.9445 23.76C76.9445 23.16 76.8179 22.62 76.5645 22.14C76.3245 21.66 75.9979 21.2867 75.5845 21.02C75.1712 20.7533 74.7112 20.62 74.2045 20.62C73.6845 20.62 73.2179 20.76 72.8045 21.04C72.3912 21.3067 72.0645 21.68 71.8245 22.16C71.5845 22.6267 71.4645 23.1667 71.4645 23.78ZM81.3934 25.08V18.52H84.0734V24.5C84.0734 25.3 84.2201 25.9067 84.5134 26.32C84.8068 26.72 85.2401 26.92 85.8134 26.92C86.1601 26.92 86.5001 26.8533 86.8334 26.72C87.1801 26.5733 87.4934 26.36 87.7734 26.08C88.0668 25.8 88.3134 25.4467 88.5134 25.02V18.52H91.1934V26C91.1934 26.28 91.2401 26.48 91.3334 26.6C91.4401 26.72 91.6068 26.7933 91.8334 26.82V29C91.5668 29.04 91.3401 29.0667 91.1534 29.08C90.9801 29.1067 90.8201 29.12 90.6734 29.12C90.1934 29.12 89.8001 29.0133 89.4934 28.8C89.2001 28.5733 89.0268 28.2667 88.9734 27.88L88.9134 27.04C88.4468 27.7467 87.8468 28.2867 87.1134 28.66C86.3801 29.02 85.5734 29.2 84.6934 29.2C83.6134 29.2 82.7934 28.8533 82.2334 28.16C81.6734 27.4533 81.3934 26.4267 81.3934 25.08ZM100.097 20.84C99.2834 20.84 98.5567 21 97.9167 21.32C97.2767 21.6267 96.8167 22.0733 96.5367 22.66V29H93.8567V18.52H96.3167V20.76C96.6901 20.04 97.1634 19.4733 97.7367 19.06C98.3101 18.6467 98.9167 18.42 99.5567 18.38C99.7034 18.38 99.8167 18.38 99.8967 18.38C99.9767 18.38 100.043 18.3867 100.097 18.4V20.84ZM101.591 29V18.52H104.271V29H101.591ZM101.591 17.06V14.4H104.271V17.06H101.591ZM110.549 29.2C109.655 29.2 108.802 29.0533 107.989 28.76C107.175 28.4667 106.475 28.0333 105.889 27.46L106.849 25.72C107.475 26.2267 108.089 26.6 108.689 26.84C109.302 27.08 109.889 27.2 110.449 27.2C110.969 27.2 111.382 27.1067 111.689 26.92C112.009 26.7333 112.169 26.4533 112.169 26.08C112.169 25.8267 112.082 25.6333 111.909 25.5C111.735 25.3533 111.482 25.2267 111.149 25.12C110.829 25.0133 110.435 24.8933 109.969 24.76C109.195 24.5067 108.549 24.26 108.029 24.02C107.509 23.78 107.115 23.48 106.849 23.12C106.595 22.7467 106.469 22.2733 106.469 21.7C106.469 21.0067 106.642 20.4133 106.989 19.92C107.349 19.4133 107.842 19.02 108.469 18.74C109.109 18.46 109.855 18.32 110.709 18.32C111.455 18.32 112.162 18.44 112.829 18.68C113.495 18.9067 114.102 19.28 114.649 19.8L113.569 21.5C113.035 21.0867 112.529 20.7867 112.049 20.6C111.569 20.4 111.082 20.3 110.589 20.3C110.309 20.3 110.042 20.3333 109.789 20.4C109.549 20.4667 109.349 20.58 109.189 20.74C109.042 20.8867 108.969 21.1 108.969 21.38C108.969 21.6333 109.035 21.8333 109.169 21.98C109.315 22.1133 109.529 22.2333 109.809 22.34C110.102 22.4467 110.455 22.5667 110.869 22.7C111.709 22.94 112.415 23.1867 112.989 23.44C113.575 23.6933 114.015 24.0067 114.309 24.38C114.602 24.74 114.749 25.24 114.749 25.88C114.749 26.92 114.369 27.7333 113.609 28.32C112.849 28.9067 111.829 29.2 110.549 29.2ZM126.312 29H123.632V23.12C123.632 22.3067 123.472 21.7 123.152 21.3C122.845 20.9 122.418 20.7 121.872 20.7C121.552 20.7 121.212 20.7933 120.852 20.98C120.492 21.1667 120.165 21.4267 119.872 21.76C119.592 22.08 119.385 22.4533 119.252 22.88V29H116.572V14.4H119.252V20.46C119.638 19.7933 120.165 19.2733 120.832 18.9C121.498 18.5267 122.225 18.34 123.012 18.34C123.692 18.34 124.245 18.46 124.672 18.7C125.098 18.9267 125.432 19.24 125.672 19.64C125.912 20.0267 126.078 20.4667 126.172 20.96C126.265 21.44 126.312 21.94 126.312 22.46V29Z" fill="#7D7D7D"/>
<defs>
<clipPath id="clip0_57_7">
<rect width="43" height="43" fill="white"/>
</clipPath>
</defs>
</svg>
